<mxfile host="app.diagrams.net" modified="2024-04-15T12:53:49.466Z" agent="Mozilla/5.0 (Windows NT 10.0; Win64; x64) AppleWebKit/537.36 (KHTML, like Gecko) Chrome/123.0.0.0 Safari/537.36" etag="O14WZI-_5Iy1e0iozdUA" version="24.0.7" type="device">
  <diagram name="Page-1" id="tM2-Rs7h3rgewi79HRBw">
    <mxGraphModel dx="649" dy="543" grid="1" gridSize="10" guides="1" tooltips="1" connect="1" arrows="1" fold="1" page="1" pageScale="1" pageWidth="850" pageHeight="1100" math="0" shadow="0">
      <root>
        <mxCell id="0" />
        <mxCell id="1" parent="0" />
        <mxCell id="MbirxZDn3CB3OXJByzq6-1" value="Supermercado" style="swimlane;fontStyle=1;align=center;verticalAlign=top;childLayout=stackLayout;horizontal=1;startSize=26;horizontalStack=0;resizeParent=1;resizeParentMax=0;resizeLast=0;collapsible=1;marginBottom=0;whiteSpace=wrap;html=1;" vertex="1" parent="1">
          <mxGeometry x="40" y="151" width="250" height="190" as="geometry" />
        </mxCell>
        <mxCell id="MbirxZDn3CB3OXJByzq6-2" value="-nombre : String&lt;div&gt;-direccion : String&lt;/div&gt;&lt;div&gt;-catalogo : List&amp;lt;Producto&amp;gt;&lt;/div&gt;" style="text;strokeColor=none;fillColor=none;align=left;verticalAlign=top;spacingLeft=4;spacingRight=4;overflow=hidden;rotatable=0;points=[[0,0.5],[1,0.5]];portConstraint=eastwest;whiteSpace=wrap;html=1;" vertex="1" parent="MbirxZDn3CB3OXJByzq6-1">
          <mxGeometry y="26" width="250" height="74" as="geometry" />
        </mxCell>
        <mxCell id="MbirxZDn3CB3OXJByzq6-3" value="" style="line;strokeWidth=1;fillColor=none;align=left;verticalAlign=middle;spacingTop=-1;spacingLeft=3;spacingRight=3;rotatable=0;labelPosition=right;points=[];portConstraint=eastwest;strokeColor=inherit;" vertex="1" parent="MbirxZDn3CB3OXJByzq6-1">
          <mxGeometry y="100" width="250" height="8" as="geometry" />
        </mxCell>
        <mxCell id="MbirxZDn3CB3OXJByzq6-4" value="+getCantidadDeProductos():int&lt;div&gt;+agregarProducto():void&lt;/div&gt;&lt;div&gt;+getPrecioTotal():Double&lt;/div&gt;" style="text;strokeColor=none;fillColor=none;align=left;verticalAlign=top;spacingLeft=4;spacingRight=4;overflow=hidden;rotatable=0;points=[[0,0.5],[1,0.5]];portConstraint=eastwest;whiteSpace=wrap;html=1;" vertex="1" parent="MbirxZDn3CB3OXJByzq6-1">
          <mxGeometry y="108" width="250" height="82" as="geometry" />
        </mxCell>
        <mxCell id="MbirxZDn3CB3OXJByzq6-6" value="Producto" style="swimlane;fontStyle=1;align=center;verticalAlign=top;childLayout=stackLayout;horizontal=1;startSize=26;horizontalStack=0;resizeParent=1;resizeParentMax=0;resizeLast=0;collapsible=1;marginBottom=0;whiteSpace=wrap;html=1;" vertex="1" parent="1">
          <mxGeometry x="490" y="150" width="250" height="170" as="geometry" />
        </mxCell>
        <mxCell id="MbirxZDn3CB3OXJByzq6-7" value="-nombre : String&lt;div&gt;-precio : Double&lt;/div&gt;&lt;div&gt;-cuidado: boolean&lt;/div&gt;" style="text;strokeColor=none;fillColor=none;align=left;verticalAlign=top;spacingLeft=4;spacingRight=4;overflow=hidden;rotatable=0;points=[[0,0.5],[1,0.5]];portConstraint=eastwest;whiteSpace=wrap;html=1;" vertex="1" parent="MbirxZDn3CB3OXJByzq6-6">
          <mxGeometry y="26" width="250" height="54" as="geometry" />
        </mxCell>
        <mxCell id="MbirxZDn3CB3OXJByzq6-8" value="" style="line;strokeWidth=1;fillColor=none;align=left;verticalAlign=middle;spacingTop=-1;spacingLeft=3;spacingRight=3;rotatable=0;labelPosition=right;points=[];portConstraint=eastwest;strokeColor=inherit;" vertex="1" parent="MbirxZDn3CB3OXJByzq6-6">
          <mxGeometry y="80" width="250" height="8" as="geometry" />
        </mxCell>
        <mxCell id="MbirxZDn3CB3OXJByzq6-9" value="+getPrecio() : Double&lt;div&gt;+getNombre() : String&lt;/div&gt;&lt;div&gt;+esPrecioCuidado : bololean&lt;/div&gt;&lt;div&gt;+aumentarPrecio(): void.&lt;/div&gt;" style="text;strokeColor=none;fillColor=none;align=left;verticalAlign=top;spacingLeft=4;spacingRight=4;overflow=hidden;rotatable=0;points=[[0,0.5],[1,0.5]];portConstraint=eastwest;whiteSpace=wrap;html=1;" vertex="1" parent="MbirxZDn3CB3OXJByzq6-6">
          <mxGeometry y="88" width="250" height="82" as="geometry" />
        </mxCell>
        <mxCell id="MbirxZDn3CB3OXJByzq6-10" value="ProductoPrimeraNec" style="swimlane;fontStyle=1;align=center;verticalAlign=top;childLayout=stackLayout;horizontal=1;startSize=26;horizontalStack=0;resizeParent=1;resizeParentMax=0;resizeLast=0;collapsible=1;marginBottom=0;whiteSpace=wrap;html=1;" vertex="1" parent="1">
          <mxGeometry x="490" y="410" width="250" height="60" as="geometry" />
        </mxCell>
        <mxCell id="MbirxZDn3CB3OXJByzq6-12" value="" style="line;strokeWidth=1;fillColor=none;align=left;verticalAlign=middle;spacingTop=-1;spacingLeft=3;spacingRight=3;rotatable=0;labelPosition=right;points=[];portConstraint=eastwest;strokeColor=inherit;" vertex="1" parent="MbirxZDn3CB3OXJByzq6-10">
          <mxGeometry y="26" width="250" height="8" as="geometry" />
        </mxCell>
        <mxCell id="MbirxZDn3CB3OXJByzq6-13" value="+getPrecio() : Double" style="text;strokeColor=none;fillColor=none;align=left;verticalAlign=top;spacingLeft=4;spacingRight=4;overflow=hidden;rotatable=0;points=[[0,0.5],[1,0.5]];portConstraint=eastwest;whiteSpace=wrap;html=1;" vertex="1" parent="MbirxZDn3CB3OXJByzq6-10">
          <mxGeometry y="34" width="250" height="26" as="geometry" />
        </mxCell>
        <mxCell id="MbirxZDn3CB3OXJByzq6-14" value="productos" style="endArrow=block;endFill=1;html=1;edgeStyle=orthogonalEdgeStyle;align=left;verticalAlign=top;rounded=0;entryX=0.004;entryY=1.077;entryDx=0;entryDy=0;entryPerimeter=0;" edge="1" parent="1">
          <mxGeometry x="0.0172" y="-1" relative="1" as="geometry">
            <mxPoint x="290" y="210" as="sourcePoint" />
            <mxPoint x="491" y="214.002" as="targetPoint" />
            <Array as="points">
              <mxPoint x="290" y="211" />
              <mxPoint x="390" y="211" />
              <mxPoint x="390" y="214" />
            </Array>
            <mxPoint y="-1" as="offset" />
          </mxGeometry>
        </mxCell>
        <mxCell id="MbirxZDn3CB3OXJByzq6-15" value="x" style="edgeLabel;resizable=0;html=1;align=left;verticalAlign=bottom;" connectable="0" vertex="1" parent="MbirxZDn3CB3OXJByzq6-14">
          <mxGeometry x="-1" relative="1" as="geometry">
            <mxPoint x="120" y="4" as="offset" />
          </mxGeometry>
        </mxCell>
        <mxCell id="MbirxZDn3CB3OXJByzq6-16" value="Extends" style="endArrow=block;endSize=16;endFill=0;html=1;rounded=0;exitX=0.443;exitY=-0.039;exitDx=0;exitDy=0;exitPerimeter=0;entryX=0.443;entryY=1.055;entryDx=0;entryDy=0;entryPerimeter=0;" edge="1" parent="1" source="MbirxZDn3CB3OXJByzq6-10" target="MbirxZDn3CB3OXJByzq6-9">
          <mxGeometry width="160" relative="1" as="geometry">
            <mxPoint x="600" y="310" as="sourcePoint" />
            <mxPoint x="760" y="310" as="targetPoint" />
            <Array as="points">
              <mxPoint x="600" y="360" />
            </Array>
          </mxGeometry>
        </mxCell>
      </root>
    </mxGraphModel>
  </diagram>
</mxfile>
